<svg width="674" height="126" viewBox="0 0 674 126" fill="none" xmlns="http://www.w3.org/2000/svg">
<path d="M639.684 113.297C632.934 113.297 627.043 111.75 622.012 108.656C616.981 105.562 613.075 101.234 610.293 95.6719C607.512 90.1094 606.122 83.6094 606.122 76.1719C606.122 68.7031 607.512 62.1719 610.293 56.5781C613.075 50.9844 616.981 46.6406 622.012 43.5469C627.043 40.4531 632.934 38.9062 639.684 38.9062C646.434 38.9062 652.325 40.4531 657.356 43.5469C662.387 46.6406 666.293 50.9844 669.075 56.5781C671.856 62.1719 673.247 68.7031 673.247 76.1719C673.247 83.6094 671.856 90.1094 669.075 95.6719C666.293 101.234 662.387 105.562 657.356 108.656C652.325 111.75 646.434 113.297 639.684 113.297ZM639.731 101.531C644.106 101.531 647.731 100.375 650.606 98.0625C653.481 95.75 655.606 92.6719 656.981 88.8281C658.387 84.9844 659.09 80.75 659.09 76.125C659.09 71.5312 658.387 67.3125 656.981 63.4688C655.606 59.5938 653.481 56.4844 650.606 54.1406C647.731 51.7969 644.106 50.625 639.731 50.625C635.325 50.625 631.668 51.7969 628.762 54.1406C625.887 56.4844 623.747 59.5938 622.34 63.4688C620.965 67.3125 620.278 71.5312 620.278 76.125C620.278 80.75 620.965 84.9844 622.34 88.8281C623.747 92.6719 625.887 95.75 628.762 98.0625C631.668 100.375 635.325 101.531 639.731 101.531Z" fill="white"/>
<path d="M567.429 113.297C560.461 113.297 554.461 111.719 549.429 108.562C544.429 105.375 540.586 100.984 537.898 95.3906C535.211 89.7969 533.867 83.3906 533.867 76.1719C533.867 68.8594 535.242 62.4062 537.992 56.8125C540.742 51.1875 544.617 46.7969 549.617 43.6406C554.617 40.4844 560.508 38.9062 567.289 38.9062C572.758 38.9062 577.633 39.9219 581.914 41.9531C586.195 43.9531 589.648 46.7656 592.273 50.3906C594.929 54.0156 596.508 58.25 597.008 63.0938H583.367C582.617 59.7188 580.898 56.8125 578.211 54.375C575.554 51.9375 571.992 50.7188 567.523 50.7188C563.617 50.7188 560.195 51.75 557.258 53.8125C554.351 55.8438 552.086 58.75 550.461 62.5312C548.836 66.2813 548.023 70.7188 548.023 75.8438C548.023 81.0938 548.82 85.625 550.414 89.4375C552.008 93.25 554.258 96.2031 557.164 98.2969C560.101 100.391 563.554 101.438 567.523 101.438C570.179 101.438 572.586 100.953 574.742 99.9844C576.929 98.9844 578.758 97.5625 580.226 95.7188C581.726 93.875 582.773 91.6562 583.367 89.0625H597.008C596.508 93.7188 594.992 97.875 592.461 101.531C589.929 105.188 586.539 108.062 582.289 110.156C578.07 112.25 573.117 113.297 567.429 113.297Z" fill="white"/>
<path d="M495.175 113.297C488.206 113.297 482.206 111.719 477.175 108.562C472.175 105.375 468.331 100.984 465.644 95.3906C462.956 89.7969 461.613 83.3906 461.613 76.1719C461.613 68.8594 462.988 62.4062 465.738 56.8125C468.488 51.1875 472.363 46.7969 477.363 43.6406C482.363 40.4844 488.253 38.9062 495.034 38.9062C500.503 38.9062 505.378 39.9219 509.659 41.9531C513.941 43.9531 517.394 46.7656 520.019 50.3906C522.675 54.0156 524.253 58.25 524.753 63.0938H511.113C510.363 59.7188 508.644 56.8125 505.956 54.375C503.3 51.9375 499.738 50.7188 495.269 50.7188C491.363 50.7188 487.941 51.75 485.003 53.8125C482.097 55.8438 479.831 58.75 478.206 62.5312C476.581 66.2813 475.769 70.7188 475.769 75.8438C475.769 81.0938 476.566 85.625 478.159 89.4375C479.753 93.25 482.003 96.2031 484.909 98.2969C487.847 100.391 491.3 101.438 495.269 101.438C497.925 101.438 500.331 100.953 502.488 99.9844C504.675 98.9844 506.503 97.5625 507.972 95.7188C509.472 93.875 510.519 91.6562 511.113 89.0625H524.753C524.253 93.7188 522.738 97.875 520.206 101.531C517.675 105.188 514.284 108.062 510.034 110.156C505.816 112.25 500.863 113.297 495.175 113.297Z" fill="white"/>
<path d="M418.28 113.297C411.53 113.297 405.639 111.75 400.608 108.656C395.577 105.562 391.67 101.234 388.889 95.6719C386.108 90.1094 384.717 83.6094 384.717 76.1719C384.717 68.7031 386.108 62.1719 388.889 56.5781C391.67 50.9844 395.577 46.6406 400.608 43.5469C405.639 40.4531 411.53 38.9062 418.28 38.9062C425.03 38.9062 430.92 40.4531 435.952 43.5469C440.983 46.6406 444.889 50.9844 447.67 56.5781C450.452 62.1719 451.842 68.7031 451.842 76.1719C451.842 83.6094 450.452 90.1094 447.67 95.6719C444.889 101.234 440.983 105.562 435.952 108.656C430.92 111.75 425.03 113.297 418.28 113.297ZM418.327 101.531C422.702 101.531 426.327 100.375 429.202 98.0625C432.077 95.75 434.202 92.6719 435.577 88.8281C436.983 84.9844 437.686 80.75 437.686 76.125C437.686 71.5312 436.983 67.3125 435.577 63.4688C434.202 59.5938 432.077 56.4844 429.202 54.1406C426.327 51.7969 422.702 50.625 418.327 50.625C413.92 50.625 410.264 51.7969 407.358 54.1406C404.483 56.4844 402.342 59.5938 400.936 63.4688C399.561 67.3125 398.874 71.5312 398.874 76.125C398.874 80.75 399.561 84.9844 400.936 88.8281C402.342 92.6719 404.483 95.75 407.358 98.0625C410.264 100.375 413.92 101.531 418.327 101.531Z" fill="white"/>
<path d="M342.51 111.844V39.8438H356.057V51.2813H356.807C358.119 47.4063 360.432 44.3594 363.744 42.1406C367.088 39.8906 370.869 38.7656 375.088 38.7656C375.963 38.7656 376.994 38.7969 378.182 38.8594C379.4 38.9219 380.354 39 381.041 39.0938V52.5C380.479 52.3438 379.479 52.1719 378.041 51.9844C376.604 51.7656 375.166 51.6563 373.729 51.6563C370.416 51.6563 367.463 52.3594 364.869 53.7656C362.307 55.1406 360.275 57.0625 358.775 59.5313C357.275 61.9688 356.525 64.75 356.525 67.875V111.844H342.51Z" fill="white"/>
<path d="M264.646 111.844V15.8438H278.661V51.5156H279.505C280.318 50.0156 281.49 48.2813 283.021 46.3125C284.552 44.3438 286.677 42.625 289.396 41.1563C292.115 39.6563 295.708 38.9063 300.177 38.9063C305.99 38.9063 311.177 40.375 315.74 43.3125C320.302 46.25 323.88 50.4844 326.474 56.0156C329.099 61.5469 330.411 68.2031 330.411 75.9844C330.411 83.7656 329.115 90.4375 326.521 96C323.927 101.531 320.364 105.797 315.833 108.797C311.302 111.766 306.13 113.25 300.318 113.25C295.943 113.25 292.365 112.516 289.583 111.047C286.833 109.578 284.677 107.859 283.115 105.891C281.552 103.922 280.349 102.172 279.505 100.641H278.333V111.844H264.646ZM278.38 75.8438C278.38 80.9062 279.115 85.3438 280.583 89.1562C282.052 92.9688 284.177 95.9531 286.958 98.1094C289.74 100.234 293.146 101.297 297.177 101.297C301.365 101.297 304.865 100.188 307.677 97.9688C310.49 95.7188 312.615 92.6719 314.052 88.8281C315.521 84.9844 316.255 80.6562 316.255 75.8438C316.255 71.0938 315.536 66.8281 314.099 63.0469C312.693 59.2656 310.568 56.2813 307.724 54.0938C304.911 51.9063 301.396 50.8125 297.177 50.8125C293.115 50.8125 289.677 51.8594 286.865 53.9531C284.083 56.0469 281.974 58.9688 280.536 62.7188C279.099 66.4688 278.38 70.8438 278.38 75.8438Z" fill="white"/>
<path d="M235.29 111.844V39.8437H249.305V111.844H235.29ZM242.368 28.7344C239.93 28.7344 237.837 27.9219 236.087 26.2969C234.368 24.6406 233.509 22.6719 233.509 20.3906C233.509 18.0781 234.368 16.1094 236.087 14.4844C237.837 12.8281 239.93 12 242.368 12C244.805 12 246.884 12.8281 248.602 14.4844C250.352 16.1094 251.227 18.0781 251.227 20.3906C251.227 22.6719 250.352 24.6406 248.602 26.2969C246.884 27.9219 244.805 28.7344 242.368 28.7344Z" fill="white"/>
<path d="M164.547 111.844V15.8438H179.031V99.375H222.531V111.844H164.547Z" fill="white"/>
<path d="M50.9286 19.3529C50.9286 15.9418 48.1703 13.1765 44.7679 13.1765C41.3654 13.1765 38.6071 15.9418 38.6071 19.3529V87.2941H95.6964C106.357 87.2941 115 95.9587 115 106.647C115 117.335 106.357 126 95.6964 126H0V6.58824C0 2.94965 2.94213 0 6.57143 0C10.2007 0 13.1429 2.94965 13.1429 6.58824V112.824H95.6964C99.0989 112.824 101.857 110.058 101.857 106.647C101.857 103.236 99.0989 100.471 95.6964 100.471H25.4643V19.3529C25.4643 8.66461 34.1068 0 44.7679 0C55.4289 0 64.0714 8.66461 64.0714 19.3529V61.7647H108.429C112.058 61.7647 115 64.7144 115 68.3529C115 71.9915 112.058 74.9412 108.429 74.9412H50.9286V19.3529Z" fill="white"/>
</svg>
